<svg width="30" height="30" viewBox="0 0 30 30" fill="none" xmlns="http://www.w3.org/2000/svg">
<circle cx="15" cy="15" r="15" fill="#EEEEEE"/>
<path d="M10.3 22C10.3 22 9 22 9 20.75C9 19.5 10.3 15.75 15.5 15.75C20.7 15.75 22 19.5 22 20.75C22 22 20.7 22 20.7 22H10.3ZM15.5 14.5C16.5343 14.5 17.5263 14.1049 18.2577 13.4017C18.9891 12.6984 19.4 11.7446 19.4 10.75C19.4 9.75544 18.9891 8.80161 18.2577 8.09835C17.5263 7.39509 16.5343 7 15.5 7C14.4657 7 13.4737 7.39509 12.7423 8.09835C12.0109 8.80161 11.6 9.75544 11.6 10.75C11.6 11.7446 12.0109 12.6984 12.7423 13.4017C13.4737 14.1049 14.4657 14.5 15.5 14.5Z" fill="#B9B9B9"/>
</svg>
