<svg width="24" height="25" viewBox="0 0 24 25" fill="none" xmlns="http://www.w3.org/2000/svg">
<path d="M12 12.5C12.55 12.5 13.021 12.304 13.413 11.912C13.8043 11.5207 14 11.05 14 10.5C14 9.95 13.8043 9.479 13.413 9.087C13.021 8.69567 12.55 8.5 12 8.5C11.45 8.5 10.9793 8.69567 10.588 9.087C10.196 9.479 10 9.95 10 10.5C10 11.05 10.196 11.5207 10.588 11.912C10.9793 12.304 11.45 12.5 12 12.5ZM12 22.5C9.31667 20.2167 7.31267 18.0957 5.988 16.137C4.66267 14.179 4 12.3667 4 10.7C4 8.2 4.80433 6.20833 6.413 4.725C8.021 3.24167 9.88333 2.5 12 2.5C14.1167 2.5 15.979 3.24167 17.587 4.725C19.1957 6.20833 20 8.2 20 10.7C20 12.3667 19.3377 14.179 18.013 16.137C16.6877 18.0957 14.6833 20.2167 12 22.5Z" fill="#FFCD07"/>
</svg>
