<svg width="128" height="32" viewBox="0 0 128 32" fill="none" xmlns="http://www.w3.org/2000/svg">
<g clip-path="url(#clip0_73_2542)">
<path d="M39.0308 15.5127C39.0308 11.3985 37.3964 7.45275 34.4872 4.54356C31.578 1.63437 27.6323 5.39515e-07 23.5181 0C19.4039 -5.39514e-07 15.4582 1.63437 12.549 4.54356C9.63974 7.45275 8.00537 11.3985 8.00537 15.5127H12.8532C14.4596 15.5127 15.7124 14.1665 16.3008 12.6717C16.6871 11.6903 17.2733 10.7884 18.0335 10.0281C19.4881 8.57352 21.461 7.75634 23.5181 7.75634C25.5752 7.75634 27.5481 8.57352 29.0027 10.0281C30.4573 11.4827 31.2744 13.4556 31.2744 15.5127H39.0308Z" fill="url(#paint0_linear_73_2542)"/>
<path d="M30.0944 21.4491C30.874 19.567 31.2753 17.5498 31.2753 15.5127H39.0308C39.0308 24.0801 32.0855 31.0253 23.5181 31.0253C22.1764 31.0253 20.8744 30.855 19.6328 30.5348C20.3353 30.3538 21.0258 30.1233 21.699 29.8445C23.5811 29.0649 25.2912 27.9223 26.7317 26.4818C28.1722 25.0413 29.3149 23.3312 30.0944 21.4491Z" fill="#FBD16F"/>
<path d="M0.25 15.5126C0.25 17.5498 0.651247 19.567 1.43083 21.4491C2.21042 23.3312 3.35307 25.0413 4.79356 26.4818C6.23404 27.9222 7.94415 29.0649 9.82623 29.8445C11.7083 30.6241 13.7255 31.0253 15.7627 31.0253C17.7998 31.0253 19.817 30.6241 21.6991 29.8445C23.5812 29.0649 25.2913 27.9222 26.7318 26.4818C28.1723 25.0413 29.3149 23.3312 30.0945 21.4491C30.8741 19.567 31.2754 17.5498 31.2754 15.5126H26.4276C24.8212 15.5126 23.5684 16.8588 22.98 18.3535C22.9633 18.3961 22.9461 18.4385 22.9286 18.4809C22.5388 19.4219 21.9675 20.277 21.2472 20.9972C20.527 21.7174 19.6719 22.2888 18.7309 22.6786C17.7899 23.0684 16.7813 23.269 15.7627 23.269C14.7441 23.269 13.7355 23.0684 12.7945 22.6786C11.8534 22.2888 10.9984 21.7174 10.2781 20.9972C9.55787 20.277 8.98655 19.4219 8.59676 18.4809C8.20696 17.5398 8.00634 16.5312 8.00634 15.5126H0.25Z" fill="url(#paint1_linear_73_2542)"/>
<path d="M0.251465 15.5127C0.251465 6.94524 7.19671 0 15.7641 0C17.1055 0 18.4071 0.170246 19.6486 0.490323C16.9847 1.17657 14.5273 2.56535 12.549 4.54357C9.6398 7.45273 8.00545 11.3985 8.00545 15.5127H0.251465Z" fill="#FBD16F"/>
<path d="M46.498 10.24H49.49C51.1753 10.24 52.2953 10.5227 52.85 11.088C53.4047 11.6533 53.682 12.336 53.682 13.136C53.682 13.6693 53.5647 14.176 53.33 14.656C53.0953 15.1253 52.722 15.4773 52.21 15.712C52.9673 15.904 53.522 16.24 53.874 16.72C54.2367 17.2 54.418 17.7653 54.418 18.416C54.418 19.0987 54.3113 19.696 54.098 20.208C53.8847 20.72 53.442 21.1467 52.77 21.488C52.098 21.8293 51.1273 22 49.858 22H46.498V10.24ZM49.778 15.232C50.5353 15.232 51.074 15.0507 51.394 14.688C51.714 14.3147 51.874 13.8453 51.874 13.28C51.874 12.2667 51.1487 11.76 49.698 11.76H48.258V15.232H49.778ZM50.098 20.496C51.0687 20.496 51.7193 20.304 52.05 19.92C52.3913 19.5253 52.562 19.0293 52.562 18.432C52.562 17.8667 52.37 17.4293 51.986 17.12C51.602 16.8107 51.0207 16.656 50.242 16.656H48.258V20.496H50.098ZM59.8736 22.16C58.999 22.16 58.2683 21.9893 57.6816 21.648C57.095 21.296 56.663 20.832 56.3856 20.256C56.1083 19.6693 55.9696 19.0293 55.9696 18.336C55.9696 17.5573 56.1296 16.8747 56.4496 16.288C56.7803 15.7013 57.2336 15.2533 57.8096 14.944C58.3856 14.624 59.0363 14.464 59.7616 14.464C60.8923 14.464 61.7296 14.7787 62.2736 15.408C62.8283 16.0267 63.1056 16.9013 63.1056 18.032C63.1056 18.32 63.0896 18.6187 63.0576 18.928H57.7776C57.895 19.5787 58.1243 20.048 58.4656 20.336C58.8176 20.624 59.303 20.768 59.9216 20.768C60.4336 20.768 60.855 20.7253 61.1856 20.64C61.5163 20.5547 61.8203 20.4373 62.0976 20.288L62.6256 21.52C62.359 21.6907 61.9963 21.84 61.5376 21.968C61.079 22.096 60.5243 22.16 59.8736 22.16ZM61.4256 17.728C61.4363 17.0667 61.2923 16.6027 60.9936 16.336C60.695 16.0587 60.2683 15.92 59.7136 15.92C58.5936 15.92 57.9483 16.5227 57.7776 17.728H61.4256ZM68.1653 22.16C67.5039 22.16 66.8906 22.0053 66.3253 21.696C65.7706 21.376 65.3226 20.928 64.9813 20.352C64.6506 19.7653 64.4853 19.0827 64.4853 18.304C64.4853 17.536 64.6293 16.864 64.9173 16.288C65.2159 15.712 65.6373 15.264 66.1813 14.944C66.7253 14.624 67.3653 14.464 68.1013 14.464C68.5279 14.464 68.9279 14.5387 69.3013 14.688C69.6746 14.8373 69.9893 15.024 70.2453 15.248C70.5013 15.4613 70.6719 15.6747 70.7573 15.888L70.7893 14.656H72.4373V22H70.8053L70.7733 20.704C70.5919 21.088 70.2613 21.4293 69.7813 21.728C69.3013 22.016 68.7626 22.16 68.1653 22.16ZM68.4533 20.72C69.0613 20.72 69.5733 20.512 69.9893 20.096C70.4053 19.6693 70.6133 19.1147 70.6133 18.432V18.32C70.6133 17.8613 70.5173 17.4507 70.3253 17.088C70.1333 16.7253 69.8719 16.4427 69.5413 16.24C69.2106 16.0373 68.8479 15.936 68.4533 15.936C67.7706 15.936 67.2426 16.16 66.8693 16.608C66.4959 17.0453 66.3093 17.616 66.3093 18.32C66.3093 19.0347 66.4906 19.616 66.8533 20.064C67.2266 20.5013 67.7599 20.72 68.4533 20.72ZM77.305 22.16C76.2917 22.16 75.593 21.8613 75.209 21.264C74.8357 20.6667 74.649 19.8347 74.649 18.768V14.656H76.377V18.336C76.377 18.944 76.409 19.4187 76.473 19.76C76.5477 20.0907 76.6863 20.336 76.889 20.496C77.1023 20.656 77.417 20.736 77.833 20.736C78.1317 20.736 78.4197 20.6507 78.697 20.48C78.9743 20.3093 79.1983 20.08 79.369 19.792C79.5503 19.4933 79.641 19.168 79.641 18.816V14.656H81.353V22H79.945L79.753 20.928C79.4863 21.344 79.1503 21.6533 78.745 21.856C78.3503 22.0587 77.8703 22.16 77.305 22.16ZM84.2916 16.064H82.9956V14.656H84.2916V11.664L86.0356 11.28V14.656H87.7316V16.064H86.0356V22H84.2916V16.064ZM91.248 22.224L88.208 14.656H90.16L91.728 19.328L92.08 20.464L92.432 19.328L94.08 14.656H95.968L91.456 26.032H89.664L91.248 22.224ZM106.467 22.112C105.251 22.112 104.195 21.84 103.299 21.296C102.414 20.752 101.736 20.0267 101.267 19.12C100.798 18.2027 100.563 17.1947 100.563 16.096C100.563 14.9333 100.814 13.8933 101.315 12.976C101.827 12.0587 102.542 11.344 103.459 10.832C104.376 10.3093 105.416 10.048 106.579 10.048C107.102 10.048 107.587 10.1067 108.035 10.224C108.494 10.3307 108.872 10.4587 109.171 10.608C109.47 10.7467 109.667 10.864 109.763 10.96L108.979 12.56C108.328 11.984 107.48 11.696 106.435 11.696C105.699 11.696 105.032 11.8773 104.435 12.24C103.838 12.6027 103.368 13.12 103.027 13.792C102.686 14.464 102.515 15.2427 102.515 16.128C102.515 16.9387 102.664 17.6747 102.963 18.336C103.272 18.9973 103.72 19.52 104.307 19.904C104.894 20.288 105.592 20.48 106.403 20.48C107.342 20.48 108.248 20.2133 109.123 19.68L109.651 21.2C109.416 21.4133 108.984 21.6213 108.355 21.824C107.736 22.016 107.107 22.112 106.467 22.112ZM111.53 14.656H113.322V22H111.53V14.656ZM112.41 13.28C112.079 13.28 111.802 13.168 111.578 12.944C111.354 12.72 111.242 12.4427 111.242 12.112C111.242 11.8133 111.354 11.5573 111.578 11.344C111.802 11.1307 112.079 11.024 112.41 11.024C112.73 11.024 113.002 11.1307 113.226 11.344C113.45 11.5573 113.562 11.8133 113.562 12.112C113.562 12.4427 113.45 12.72 113.226 12.944C113.012 13.168 112.74 13.28 112.41 13.28ZM116.354 16.064H115.058V14.656H116.354V11.664L118.098 11.28V14.656H119.794V16.064H118.098V22H116.354V16.064ZM123.311 22.224L120.271 14.656H122.223L123.791 19.328L124.143 20.464L124.495 19.328L126.143 14.656H128.031L123.519 26.032H121.727L123.311 22.224Z" fill="#D99105"/>
</g>
<defs>
<linearGradient id="paint0_linear_73_2542" x1="39.0308" y1="7.75634" x2="8.00537" y2="7.75634" gradientUnits="userSpaceOnUse">
<stop stop-color="#FBD67C"/>
<stop offset="1" stop-color="#F6A912"/>
</linearGradient>
<linearGradient id="paint1_linear_73_2542" x1="0.250001" y1="23.269" x2="31.2754" y2="23.269" gradientUnits="userSpaceOnUse">
<stop stop-color="#FBDC8E"/>
<stop offset="1" stop-color="#F8AF11"/>
</linearGradient>
<clipPath id="clip0_73_2542">
<rect width="128" height="32" fill="white"/>
</clipPath>
</defs>
</svg>
