<svg width="79" height="15" viewBox="0 0 79 15" fill="none" xmlns="http://www.w3.org/2000/svg">
<path d="M7.5 0L9.18386 5.18237H14.6329L10.2245 8.38525L11.9084 13.5676L7.5 10.3647L3.09161 13.5676L4.77547 8.38525L0.367076 5.18237H5.81614L7.5 0Z" fill="#FFCD07"/>
<path d="M23.5 0L25.1839 5.18237H30.6329L26.2245 8.38525L27.9084 13.5676L23.5 10.3647L19.0916 13.5676L20.7755 8.38525L16.3671 5.18237H21.8161L23.5 0Z" fill="#FFCD07"/>
<path d="M39.5 0L41.1839 5.18237H46.6329L42.2245 8.38525L43.9084 13.5676L39.5 10.3647L35.0916 13.5676L36.7755 8.38525L32.3671 5.18237H37.8161L39.5 0Z" fill="#FFCD07"/>
<path d="M55.5 0L57.1839 5.18237H62.6329L58.2245 8.38525L59.9084 13.5676L55.5 10.3647L51.0916 13.5676L52.7755 8.38525L48.3671 5.18237H53.8161L55.5 0Z" fill="#FFCD07"/>
<path d="M71.5 0L73.1839 5.18237H78.6329L74.2245 8.38525L75.9084 13.5676L71.5 10.3647L67.0916 13.5676L68.7755 8.38525L64.3671 5.18237H69.8161L71.5 0Z" fill="#D9D9D9"/>
</svg>
