<svg width="24" height="24" viewBox="0 0 24 24" fill="none" xmlns="http://www.w3.org/2000/svg">
<path d="M15.2231 1.5H8.77693C2.89449 1.5 1.5 2.89449 1.5 8.77693V15.2231C1.5 21.1055 2.89449 22.5 8.77693 22.5H15.2231C21.1055 22.5 22.5 21.1055 22.5 15.2231V8.77693C22.5 2.89449 21.0917 1.5 15.2231 1.5ZM18.453 16.4804H16.9286C16.3511 16.4804 16.1733 16.0224 15.1345 14.9698C14.2322 14.095 13.8325 13.9789 13.6101 13.9789C13.2957 13.9789 13.2065 14.0675 13.2065 14.4986V15.876C13.2065 16.2455 13.0903 16.4673 12.1125 16.4673C10.4956 16.4673 8.70146 15.4895 7.44347 13.6678C5.54631 10.9983 5.02723 8.99873 5.02723 8.58531C5.02723 8.36285 5.11582 8.15482 5.54303 8.15482H7.07073C7.45725 8.15482 7.60425 8.33266 7.75452 8.74609C8.50984 10.9267 9.76784 12.837 10.2869 12.837C10.4785 12.837 10.5671 12.7484 10.5671 12.2595V10.0074C10.5087 8.96855 9.96208 8.8793 9.96208 8.5105C9.96208 8.33266 10.1091 8.15482 10.3447 8.15482H12.7471C13.072 8.15482 13.1914 8.33266 13.1914 8.71524V11.7536C13.1914 12.0817 13.3384 12.1979 13.427 12.1979C13.6186 12.1979 13.7826 12.0817 14.1377 11.726C15.2349 10.4956 16.021 8.59843 16.021 8.59843C16.1234 8.37597 16.3013 8.16795 16.6878 8.16795H18.2155C18.6735 8.16795 18.7759 8.40353 18.6735 8.73165C18.4819 9.62018 16.6123 12.2589 16.6123 12.2589C16.4515 12.5253 16.3898 12.6415 16.6123 12.9387C16.7764 13.1612 17.3099 13.6225 17.6649 14.036C18.3178 14.7775 18.8199 15.3996 18.9537 15.8301C19.104 16.2573 18.8822 16.4798 18.4511 16.4798L18.453 16.4804Z" fill="#FFCD07"/>
</svg>
