<svg width="14" height="14" viewBox="0 0 14 14" fill="none" xmlns="http://www.w3.org/2000/svg">
<path d="M8.74638 7L13.6346 2.11179C13.8666 1.88021 13.9971 1.56595 13.9974 1.23815C13.9977 0.910351 13.8677 0.595863 13.6361 0.36387C13.4045 0.131876 13.0903 0.00138122 12.7625 0.00109174C12.4347 0.000802246 12.1202 0.130742 11.8882 0.362326L7 5.25054L2.11179 0.362326C1.8798 0.130333 1.56515 0 1.23706 0C0.90897 0 0.59432 0.130333 0.362326 0.362326C0.130333 0.59432 0 0.90897 0 1.23706C0 1.56515 0.130333 1.8798 0.362326 2.11179L5.25054 7L0.362326 11.8882C0.130333 12.1202 0 12.4349 0 12.7629C0 13.091 0.130333 13.4057 0.362326 13.6377C0.59432 13.8697 0.90897 14 1.23706 14C1.56515 14 1.8798 13.8697 2.11179 13.6377L7 8.74946L11.8882 13.6377C12.1202 13.8697 12.4349 14 12.7629 14C13.091 14 13.4057 13.8697 13.6377 13.6377C13.8697 13.4057 14 13.091 14 12.7629C14 12.4349 13.8697 12.1202 13.6377 11.8882L8.74638 7Z" fill="#F6A912"/>
</svg>
