<svg width="40" height="40" viewBox="0 0 40 40" fill="none" xmlns="http://www.w3.org/2000/svg">
<path d="M40 20C40 31.0457 31.0457 40 20 40C8.9543 40 0 31.0457 0 20C0 8.9543 8.9543 0 20 0C31.0457 0 40 8.9543 40 20Z" fill="#EEEEEE"/>
<path d="M13.7333 29.3333C13.7333 29.3333 12 29.3333 12 27.6667C12 26 13.7333 21 20.6667 21C27.6 21 29.3333 26 29.3333 27.6667C29.3333 29.3333 27.6 29.3333 27.6 29.3333H13.7333ZM20.6667 19.3333C22.0458 19.3333 23.3684 18.8065 24.3436 17.8689C25.3188 16.9312 25.8667 15.6594 25.8667 14.3333C25.8667 13.0073 25.3188 11.7355 24.3436 10.7978C23.3684 9.86012 22.0458 9.33333 20.6667 9.33333C19.2875 9.33333 17.9649 9.86012 16.9897 10.7978C16.0145 11.7355 15.4667 13.0073 15.4667 14.3333C15.4667 15.6594 16.0145 16.9312 16.9897 17.8689C17.9649 18.8065 19.2875 19.3333 20.6667 19.3333Z" fill="#B9B9B9"/>
</svg>
