<svg width="24" height="24" viewBox="0 0 24 24" fill="none" xmlns="http://www.w3.org/2000/svg">
<path d="M21 4.125H3C2.50348 4.12746 2.028 4.3258 1.6769 4.6769C1.3258 5.028 1.12746 5.50348 1.125 6V17.9906C1.12746 18.4871 1.3258 18.9626 1.6769 19.3137C2.028 19.6648 2.50348 19.8632 3 19.8656H21C21.4965 19.8632 21.972 19.6648 22.3231 19.3137C22.6742 18.9626 22.8725 18.4871 22.875 17.9906V6C22.8725 5.50348 22.6742 5.028 22.3231 4.6769C21.972 4.3258 21.4965 4.12746 21 4.125ZM20.625 6.375V7.95938H3.375V6.375H20.625ZM3.375 17.625V10.2094H20.625V17.625H3.375ZM19.5 15.375C19.5 15.6734 19.3815 15.9595 19.1705 16.1705C18.9595 16.3815 18.6734 16.5 18.375 16.5H15.375C15.0766 16.5 14.7905 16.3815 14.5795 16.1705C14.3685 15.9595 14.25 15.6734 14.25 15.375C14.25 15.0766 14.3685 14.7905 14.5795 14.5795C14.7905 14.3685 15.0766 14.25 15.375 14.25H18.375C18.6734 14.25 18.9595 14.3685 19.1705 14.5795C19.3815 14.7905 19.5 15.0766 19.5 15.375ZM12.75 15.375C12.75 15.6734 12.6315 15.9595 12.4205 16.1705C12.2095 16.3815 11.9234 16.5 11.625 16.5H10.125C9.82663 16.5 9.54048 16.3815 9.3295 16.1705C9.11853 15.9595 9 15.6734 9 15.375C9 15.0766 9.11853 14.7905 9.3295 14.5795C9.54048 14.3685 9.82663 14.25 10.125 14.25H11.625C11.9234 14.25 12.2095 14.3685 12.4205 14.5795C12.6315 14.7905 12.75 15.0766 12.75 15.375Z" fill="#B0B0B0"/>
</svg>
