<svg width="24" height="24" viewBox="0 0 24 24" fill="none" xmlns="http://www.w3.org/2000/svg">
<path d="M21.6748 14.6648L20.1397 13.3523C20.2123 12.907 20.2498 12.4523 20.2498 11.9977C20.2498 11.543 20.2123 11.0883 20.1397 10.643L21.6748 9.33047C21.7906 9.23135 21.8735 9.09932 21.9124 8.95196C21.9513 8.80459 21.9445 8.64886 21.8928 8.50547L21.8717 8.44454C21.4491 7.26335 20.8162 6.16837 20.0037 5.21251L19.9615 5.16329C19.863 5.04739 19.7316 4.96408 19.5847 4.92434C19.4379 4.88459 19.2824 4.89027 19.1389 4.94063L17.2334 5.61797C16.5303 5.04141 15.7451 4.58672 14.8967 4.26797L14.5287 2.27579C14.501 2.12589 14.4282 1.98798 14.3202 1.88039C14.2122 1.7728 14.074 1.70062 13.924 1.67344L13.8607 1.66172C12.6397 1.44141 11.3553 1.44141 10.1342 1.66172L10.0709 1.67344C9.9209 1.70062 9.78271 1.7728 9.6747 1.88039C9.56669 1.98798 9.49398 2.12589 9.46622 2.27579L9.0959 4.27735C8.25424 4.59617 7.47043 5.05061 6.77559 5.62266L4.85606 4.94063C4.71254 4.88987 4.55698 4.88398 4.41003 4.92375C4.26309 4.96353 4.13173 5.04707 4.0334 5.16329L3.99122 5.21251C3.17968 6.16905 2.54694 7.26384 2.12325 8.44454L2.10215 8.50547C1.99668 8.79844 2.0834 9.12657 2.32012 9.33047L3.87403 10.657C3.80137 11.0977 3.76622 11.5477 3.76622 11.9953C3.76622 12.4453 3.80137 12.8953 3.87403 13.3336L2.32012 14.6602C2.20433 14.7593 2.12146 14.8913 2.08252 15.0387C2.04359 15.186 2.05043 15.3418 2.10215 15.4852L2.12325 15.5461C2.54747 16.7273 3.17559 17.8172 3.99122 18.7781L4.0334 18.8273C4.13197 18.9432 4.26333 19.0266 4.41019 19.0663C4.55704 19.106 4.7125 19.1004 4.85606 19.05L6.77559 18.368C7.47403 18.9422 8.2545 19.3969 9.0959 19.7133L9.46622 21.7148C9.49398 21.8647 9.56669 22.0027 9.6747 22.1102C9.78271 22.2178 9.9209 22.29 10.0709 22.3172L10.1342 22.3289C11.3665 22.5504 12.6284 22.5504 13.8607 22.3289L13.924 22.3172C14.074 22.29 14.2122 22.2178 14.3202 22.1102C14.4282 22.0027 14.501 21.8647 14.5287 21.7148L14.8967 19.7227C15.7448 19.4047 16.5344 18.9486 17.2334 18.3727L19.1389 19.05C19.2824 19.1008 19.438 19.1067 19.5849 19.0669C19.7318 19.0271 19.8632 18.9436 19.9615 18.8273L20.0037 18.7781C20.8193 17.8148 21.4475 16.7273 21.8717 15.5461L21.8928 15.4852C21.9982 15.1969 21.9115 14.8688 21.6748 14.6648ZM18.4756 10.9195C18.5342 11.2734 18.5647 11.6367 18.5647 12C18.5647 12.3633 18.5342 12.7266 18.4756 13.0805L18.3209 14.0203L20.0717 15.518C19.8063 16.1294 19.4712 16.7083 19.0732 17.243L16.8982 16.4719L16.1623 17.0766C15.6022 17.5359 14.9787 17.8969 14.3037 18.15L13.4107 18.4852L12.9912 20.7586C12.3293 20.8336 11.661 20.8336 10.999 20.7586L10.5795 18.4805L9.69356 18.1406C9.02559 17.8875 8.4045 17.5266 7.84903 17.0695L7.11309 16.4625L4.92403 17.2406C4.52559 16.7039 4.19278 16.125 3.92559 15.5156L5.69512 14.0039L5.54278 13.0664C5.48653 12.7172 5.45606 12.3563 5.45606 12C5.45606 11.6414 5.48418 11.2828 5.54278 10.9336L5.69512 9.9961L3.92559 8.48438C4.19043 7.87266 4.52559 7.2961 4.92403 6.75938L7.11309 7.53751L7.84903 6.93047C8.4045 6.47344 9.02559 6.11251 9.69356 5.85938L10.5818 5.52422L11.0014 3.2461C11.66 3.1711 12.3326 3.1711 12.9936 3.2461L13.4131 5.51954L14.3061 5.85469C14.9787 6.10782 15.6045 6.46876 16.1647 6.92813L16.9006 7.53282L19.0756 6.76172C19.474 7.29844 19.8068 7.87735 20.074 8.48672L18.3232 9.98438L18.4756 10.9195ZM11.9998 7.64063C9.72168 7.64063 7.87481 9.48751 7.87481 11.7656C7.87481 14.0438 9.72168 15.8906 11.9998 15.8906C14.2779 15.8906 16.1248 14.0438 16.1248 11.7656C16.1248 9.48751 14.2779 7.64063 11.9998 7.64063ZM13.8561 13.6219C13.6126 13.866 13.3233 14.0597 13.0047 14.1916C12.6861 14.3235 12.3446 14.3912 11.9998 14.3906C11.299 14.3906 10.6404 14.1164 10.1436 13.6219C9.8994 13.3784 9.70578 13.0891 9.57385 12.7705C9.44192 12.4519 9.37427 12.1104 9.37481 11.7656C9.37481 11.0648 9.64903 10.4063 10.1436 9.90938C10.6404 9.41251 11.299 9.14063 11.9998 9.14063C12.7006 9.14063 13.3592 9.41251 13.8561 9.90938C14.1002 10.1528 14.2938 10.4422 14.4258 10.7607C14.5577 11.0793 14.6253 11.4208 14.6248 11.7656C14.6248 12.4664 14.3506 13.125 13.8561 13.6219Z" fill="#B0B0B0"/>
</svg>
