<svg width="24" height="24" viewBox="0 0 24 24" fill="none" xmlns="http://www.w3.org/2000/svg">
<path d="M18.72 14.76C19.07 13.91 19.26 13 19.26 12C19.26 11.28 19.15 10.59 18.96 9.95C18.31 10.1 17.63 10.18 16.92 10.18C15.466 10.1816 14.0329 9.83352 12.7415 9.16522C11.4502 8.49692 10.3384 7.52796 9.5 6.34C8.6031 8.51017 6.91112 10.2558 4.77 11.22C4.73 11.47 4.73 11.74 4.73 12C4.73 12.9547 4.91804 13.9001 5.2834 14.7821C5.64875 15.6641 6.18425 16.4656 6.85933 17.1407C8.22272 18.5041 10.0719 19.27 12 19.27C13.05 19.27 14.06 19.04 14.97 18.63C15.54 19.72 15.8 20.26 15.78 20.26C14.14 20.81 12.87 21.08 12 21.08C9.58 21.08 7.27 20.13 5.57 18.42C4.536 17.3892 3.76737 16.123 3.33 14.73H2V10.18H3.09C3.42024 8.57251 4.17949 7.08441 5.28719 5.87359C6.39489 4.66277 7.80971 3.77441 9.38153 3.30276C10.9534 2.83111 12.6235 2.79377 14.2149 3.19471C15.8062 3.59564 17.2593 4.41989 18.42 5.58C19.6802 6.83525 20.5398 8.4361 20.89 10.18H22V14.73H21.94L18.38 18L13.08 17.4V15.73H17.91L18.72 14.76ZM9.27 11.77C9.57 11.77 9.86 11.89 10.07 12.11C10.281 12.3228 10.3995 12.6103 10.3995 12.91C10.3995 13.2097 10.281 13.4972 10.07 13.71C9.86 13.92 9.57 14.04 9.27 14.04C8.64 14.04 8.13 13.54 8.13 12.91C8.13 12.28 8.64 11.77 9.27 11.77ZM14.72 11.77C15.35 11.77 15.85 12.28 15.85 12.91C15.85 13.54 15.35 14.04 14.72 14.04C14.09 14.04 13.58 13.54 13.58 12.91C13.58 12.6077 13.7001 12.3177 13.9139 12.1039C14.1277 11.8901 14.4177 11.77 14.72 11.77Z" fill="#B0B0B0"/>
</svg>
